<mxfile host="app.diagrams.net" agent="Mozilla/5.0 (Windows NT 10.0; Win64; x64) AppleWebKit/537.36 (KHTML, like Gecko) Chrome/135.0.0.0 Safari/537.36" version="26.2.12">
  <diagram name="第 1 页" id="WesESJl8-e0SoEIl0VXO">
    <mxGraphModel dx="1883" dy="590" grid="1" gridSize="10" guides="1" tooltips="1" connect="1" arrows="1" fold="1" page="1" pageScale="1" pageWidth="827" pageHeight="1169" math="0" shadow="0">
      <root>
        <mxCell id="0" />
        <mxCell id="1" parent="0" />
        <mxCell id="BkFgq6x3I6qA5Ee8V-09-102" style="edgeStyle=orthogonalEdgeStyle;rounded=0;orthogonalLoop=1;jettySize=auto;html=1;shape=arrow;" edge="1" parent="1" source="BkFgq6x3I6qA5Ee8V-09-66" target="BkFgq6x3I6qA5Ee8V-09-84">
          <mxGeometry relative="1" as="geometry" />
        </mxCell>
        <mxCell id="BkFgq6x3I6qA5Ee8V-09-103" value="1" style="edgeLabel;html=1;align=center;verticalAlign=middle;resizable=0;points=[];" vertex="1" connectable="0" parent="BkFgq6x3I6qA5Ee8V-09-102">
          <mxGeometry x="0.922" y="-12" relative="1" as="geometry">
            <mxPoint as="offset" />
          </mxGeometry>
        </mxCell>
        <mxCell id="BkFgq6x3I6qA5Ee8V-09-104" value="0" style="edgeLabel;html=1;align=center;verticalAlign=middle;resizable=0;points=[];" vertex="1" connectable="0" parent="BkFgq6x3I6qA5Ee8V-09-102">
          <mxGeometry x="-0.9657" y="-13" relative="1" as="geometry">
            <mxPoint as="offset" />
          </mxGeometry>
        </mxCell>
        <mxCell id="BkFgq6x3I6qA5Ee8V-09-66" value="Member" style="swimlane;html=1;fontStyle=0;childLayout=stackLayout;horizontal=1;startSize=26;fillColor=none;horizontalStack=0;resizeParent=1;resizeLast=0;collapsible=1;marginBottom=0;swimlaneFillColor=#ffffff;rounded=0;shadow=0;comic=0;labelBackgroundColor=none;strokeWidth=1;fontFamily=Verdana;fontSize=10;align=center;" vertex="1" parent="1">
          <mxGeometry x="-10" y="610" width="190" height="250" as="geometry" />
        </mxCell>
        <mxCell id="BkFgq6x3I6qA5Ee8V-09-67" value="- memberId: int" style="text;html=1;strokeColor=none;fillColor=none;align=left;verticalAlign=top;spacingLeft=4;spacingRight=4;whiteSpace=wrap;overflow=hidden;rotatable=0;points=[[0,0.5],[1,0.5]];portConstraint=eastwest;" vertex="1" parent="BkFgq6x3I6qA5Ee8V-09-66">
          <mxGeometry y="26" width="190" height="26" as="geometry" />
        </mxCell>
        <mxCell id="BkFgq6x3I6qA5Ee8V-09-68" value="- name : std::string" style="text;html=1;strokeColor=none;fillColor=none;align=left;verticalAlign=top;spacingLeft=4;spacingRight=4;whiteSpace=wrap;overflow=hidden;rotatable=0;points=[[0,0.5],[1,0.5]];portConstraint=eastwest;" vertex="1" parent="BkFgq6x3I6qA5Ee8V-09-66">
          <mxGeometry y="52" width="190" height="26" as="geometry" />
        </mxCell>
        <mxCell id="BkFgq6x3I6qA5Ee8V-09-69" value="borrowedItemIds: std::vector&amp;lt;int&amp;gt;" style="text;html=1;strokeColor=none;fillColor=none;align=left;verticalAlign=top;spacingLeft=4;spacingRight=4;whiteSpace=wrap;overflow=hidden;rotatable=0;points=[[0,0.5],[1,0.5]];portConstraint=eastwest;" vertex="1" parent="BkFgq6x3I6qA5Ee8V-09-66">
          <mxGeometry y="78" width="190" height="26" as="geometry" />
        </mxCell>
        <mxCell id="BkFgq6x3I6qA5Ee8V-09-80" value="&lt;div&gt;+ Member()&lt;/div&gt;&lt;div&gt;+ Member(int, const std::string&amp;amp;)&lt;/div&gt;&lt;div&gt;+ getMemberId() : int const&lt;/div&gt;&lt;div&gt;+ getName() : std::string const&lt;/div&gt;&lt;div&gt;+ borrowItem(int) : void&lt;/div&gt;&lt;div&gt;+ returnItem(int) : void&lt;/div&gt;&lt;div&gt;+ display() : void const&lt;/div&gt;&lt;div&gt;+ ~Member() : void&lt;/div&gt;" style="text;html=1;strokeColor=none;fillColor=none;align=left;verticalAlign=top;spacingLeft=4;spacingRight=4;whiteSpace=wrap;overflow=hidden;rotatable=0;points=[[0,0.5],[1,0.5]];portConstraint=eastwest;" vertex="1" parent="BkFgq6x3I6qA5Ee8V-09-66">
          <mxGeometry y="104" width="190" height="120" as="geometry" />
        </mxCell>
        <mxCell id="BkFgq6x3I6qA5Ee8V-09-70" value="journal" style="swimlane;html=1;fontStyle=0;childLayout=stackLayout;horizontal=1;startSize=26;fillColor=none;horizontalStack=0;resizeParent=1;resizeLast=0;collapsible=1;marginBottom=0;swimlaneFillColor=#ffffff;rounded=0;shadow=0;comic=0;labelBackgroundColor=none;strokeWidth=1;fontFamily=Verdana;fontSize=10;align=center;" vertex="1" parent="1">
          <mxGeometry x="200" y="610" width="300" height="160" as="geometry" />
        </mxCell>
        <mxCell id="BkFgq6x3I6qA5Ee8V-09-71" value="- issueNumber : int" style="text;html=1;strokeColor=none;fillColor=none;align=left;verticalAlign=top;spacingLeft=4;spacingRight=4;whiteSpace=wrap;overflow=hidden;rotatable=0;points=[[0,0.5],[1,0.5]];portConstraint=eastwest;" vertex="1" parent="BkFgq6x3I6qA5Ee8V-09-70">
          <mxGeometry y="26" width="300" height="26" as="geometry" />
        </mxCell>
        <mxCell id="BkFgq6x3I6qA5Ee8V-09-72" value="&lt;div&gt;- publicationDate : std::string&lt;/div&gt;" style="text;html=1;strokeColor=none;fillColor=none;align=left;verticalAlign=top;spacingLeft=4;spacingRight=4;whiteSpace=wrap;overflow=hidden;rotatable=0;points=[[0,0.5],[1,0.5]];portConstraint=eastwest;" vertex="1" parent="BkFgq6x3I6qA5Ee8V-09-70">
          <mxGeometry y="52" width="300" height="26" as="geometry" />
        </mxCell>
        <mxCell id="BkFgq6x3I6qA5Ee8V-09-78" value="&lt;div&gt;+ Journal()&lt;/div&gt;&lt;div&gt;+ Journal(int, const std::string&amp;amp;, int, const std::string&amp;amp;)&lt;/div&gt;&lt;div&gt;+ getIssueNumber() : int const&lt;/div&gt;&lt;div&gt;+ getPublicationDate() : std::string const&lt;/div&gt;&lt;div&gt;+ display() : void const override&lt;/div&gt;" style="text;html=1;strokeColor=none;fillColor=none;align=left;verticalAlign=top;spacingLeft=4;spacingRight=4;whiteSpace=wrap;overflow=hidden;rotatable=0;points=[[0,0.5],[1,0.5]];portConstraint=eastwest;" vertex="1" parent="BkFgq6x3I6qA5Ee8V-09-70">
          <mxGeometry y="78" width="300" height="82" as="geometry" />
        </mxCell>
        <mxCell id="BkFgq6x3I6qA5Ee8V-09-20" value="book" style="swimlane;html=1;fontStyle=0;childLayout=stackLayout;horizontal=1;startSize=26;fillColor=none;horizontalStack=0;resizeParent=1;resizeLast=0;collapsible=1;marginBottom=0;swimlaneFillColor=#ffffff;rounded=0;shadow=0;comic=0;labelBackgroundColor=none;strokeWidth=1;fontFamily=Verdana;fontSize=10;align=center;movable=1;resizable=1;rotatable=1;deletable=1;editable=1;locked=0;connectable=1;" vertex="1" parent="1">
          <mxGeometry x="457" y="810" width="370" height="170" as="geometry" />
        </mxCell>
        <mxCell id="BkFgq6x3I6qA5Ee8V-09-21" value="- author : std::string" style="text;html=1;strokeColor=none;fillColor=none;align=left;verticalAlign=top;spacingLeft=4;spacingRight=4;whiteSpace=wrap;overflow=hidden;rotatable=0;points=[[0,0.5],[1,0.5]];portConstraint=eastwest;" vertex="1" parent="BkFgq6x3I6qA5Ee8V-09-20">
          <mxGeometry y="26" width="370" height="26" as="geometry" />
        </mxCell>
        <mxCell id="BkFgq6x3I6qA5Ee8V-09-22" value="- isbn : std::string&lt;div&gt;&lt;br&gt;&lt;/div&gt;" style="text;html=1;strokeColor=none;fillColor=none;align=left;verticalAlign=top;spacingLeft=4;spacingRight=4;whiteSpace=wrap;overflow=hidden;rotatable=0;points=[[0,0.5],[1,0.5]];portConstraint=eastwest;" vertex="1" parent="BkFgq6x3I6qA5Ee8V-09-20">
          <mxGeometry y="52" width="370" height="26" as="geometry" />
        </mxCell>
        <mxCell id="BkFgq6x3I6qA5Ee8V-09-77" value="&lt;div&gt;+ Book()&lt;/div&gt;&lt;div&gt;+ Book(int, const std::string&amp;amp;, const std::string&amp;amp;, const std::string&amp;amp;)&lt;/div&gt;&lt;div&gt;+ getAuthor() : std::string const&lt;/div&gt;&lt;div&gt;+ getISBN() : std::string const&lt;/div&gt;&lt;div&gt;+ display() : void const override&amp;nbsp;&lt;/div&gt;" style="text;html=1;strokeColor=none;fillColor=none;align=left;verticalAlign=top;spacingLeft=4;spacingRight=4;whiteSpace=wrap;overflow=hidden;rotatable=0;points=[[0,0.5],[1,0.5]];portConstraint=eastwest;" vertex="1" parent="BkFgq6x3I6qA5Ee8V-09-20">
          <mxGeometry y="78" width="370" height="82" as="geometry" />
        </mxCell>
        <mxCell id="BkFgq6x3I6qA5Ee8V-09-96" style="edgeStyle=orthogonalEdgeStyle;rounded=0;orthogonalLoop=1;jettySize=auto;html=1;shape=arrow;" edge="1" parent="1" source="BkFgq6x3I6qA5Ee8V-09-16" target="BkFgq6x3I6qA5Ee8V-09-84">
          <mxGeometry relative="1" as="geometry" />
        </mxCell>
        <mxCell id="BkFgq6x3I6qA5Ee8V-09-97" value="0" style="edgeLabel;html=1;align=center;verticalAlign=middle;resizable=0;points=[];" vertex="1" connectable="0" parent="BkFgq6x3I6qA5Ee8V-09-96">
          <mxGeometry x="-0.6717" y="57" relative="1" as="geometry">
            <mxPoint x="47" y="55" as="offset" />
          </mxGeometry>
        </mxCell>
        <mxCell id="BkFgq6x3I6qA5Ee8V-09-98" value="1" style="edgeLabel;html=1;align=center;verticalAlign=middle;resizable=0;points=[];" vertex="1" connectable="0" parent="BkFgq6x3I6qA5Ee8V-09-96">
          <mxGeometry x="0.8961" y="20" relative="1" as="geometry">
            <mxPoint as="offset" />
          </mxGeometry>
        </mxCell>
        <mxCell id="BkFgq6x3I6qA5Ee8V-09-16" value="LibraryItem" style="swimlane;html=1;fontStyle=0;childLayout=stackLayout;horizontal=1;startSize=30;fillColor=none;horizontalStack=0;resizeParent=1;resizeLast=0;collapsible=1;marginBottom=0;swimlaneFillColor=#ffffff;rounded=0;shadow=0;comic=0;labelBackgroundColor=none;strokeWidth=1;fontFamily=Verdana;fontSize=10;align=center;" vertex="1" parent="1">
          <mxGeometry x="650" y="510" width="160" height="230" as="geometry" />
        </mxCell>
        <mxCell id="BkFgq6x3I6qA5Ee8V-09-17" value="-&amp;nbsp;&lt;span style=&quot;background-color: transparent; color: light-dark(rgb(0, 0, 0), rgb(255, 255, 255));&quot;&gt;id: int&lt;/span&gt;" style="text;html=1;strokeColor=none;fillColor=none;align=left;verticalAlign=top;spacingLeft=4;spacingRight=4;whiteSpace=wrap;overflow=hidden;rotatable=0;points=[[0,0.5],[1,0.5]];portConstraint=eastwest;" vertex="1" parent="BkFgq6x3I6qA5Ee8V-09-16">
          <mxGeometry y="30" width="160" height="26" as="geometry" />
        </mxCell>
        <mxCell id="BkFgq6x3I6qA5Ee8V-09-18" value="- title : std::string&lt;div&gt;&lt;br&gt;&lt;/div&gt;&lt;div&gt;&lt;br&gt;&lt;/div&gt;" style="text;html=1;strokeColor=none;fillColor=none;align=left;verticalAlign=top;spacingLeft=4;spacingRight=4;whiteSpace=wrap;overflow=hidden;rotatable=0;points=[[0,0.5],[1,0.5]];portConstraint=eastwest;" vertex="1" parent="BkFgq6x3I6qA5Ee8V-09-16">
          <mxGeometry y="56" width="160" height="26" as="geometry" />
        </mxCell>
        <mxCell id="BkFgq6x3I6qA5Ee8V-09-73" value="&lt;div&gt;+ LibraryItem() /&lt;/div&gt;&lt;div&gt;+ LibraryItem(int, const std::string&amp;amp;)&lt;/div&gt;&lt;div&gt;+ getID() : int const&lt;/div&gt;&lt;div&gt;+ getTitle() : std::string const&lt;/div&gt;&lt;div&gt;+ display() : void const&amp;nbsp;&lt;/div&gt;&lt;div&gt;+ ~LibraryItem() : void&amp;nbsp;&amp;nbsp;&lt;/div&gt;" style="text;html=1;strokeColor=none;fillColor=none;align=left;verticalAlign=top;spacingLeft=4;spacingRight=4;whiteSpace=wrap;overflow=hidden;rotatable=0;points=[[0,0.5],[1,0.5]];portConstraint=eastwest;" vertex="1" parent="BkFgq6x3I6qA5Ee8V-09-16">
          <mxGeometry y="82" width="160" height="122" as="geometry" />
        </mxCell>
        <mxCell id="BkFgq6x3I6qA5Ee8V-09-74" style="text;html=1;strokeColor=none;fillColor=none;align=left;verticalAlign=top;spacingLeft=4;spacingRight=4;whiteSpace=wrap;overflow=hidden;rotatable=0;points=[[0,0.5],[1,0.5]];portConstraint=eastwest;" vertex="1" parent="BkFgq6x3I6qA5Ee8V-09-16">
          <mxGeometry y="204" width="160" height="26" as="geometry" />
        </mxCell>
        <mxCell id="BkFgq6x3I6qA5Ee8V-09-81" value="Library" style="swimlane;html=1;fontStyle=0;childLayout=stackLayout;horizontal=1;startSize=26;fillColor=none;horizontalStack=0;resizeParent=1;resizeLast=0;collapsible=1;marginBottom=0;swimlaneFillColor=#ffffff;rounded=0;shadow=0;comic=0;labelBackgroundColor=none;strokeWidth=1;fontFamily=Verdana;fontSize=10;align=center;" vertex="1" parent="1">
          <mxGeometry x="360" y="210" width="220" height="380" as="geometry" />
        </mxCell>
        <mxCell id="BkFgq6x3I6qA5Ee8V-09-105" value="&lt;div&gt;- libraryName : std::string&lt;/div&gt;&lt;div&gt;&lt;br&gt;&lt;/div&gt;&lt;div&gt;- items : std::vector&amp;lt;LibraryItem*&amp;gt;&lt;/div&gt;&lt;div&gt;&lt;br&gt;&lt;/div&gt;&lt;div&gt;- members : std::vector&amp;lt;Member&amp;gt;&lt;/div&gt;" style="text;html=1;strokeColor=none;fillColor=none;align=left;verticalAlign=top;spacingLeft=4;spacingRight=4;whiteSpace=wrap;overflow=hidden;rotatable=0;points=[[0,0.5],[1,0.5]];portConstraint=eastwest;" vertex="1" parent="BkFgq6x3I6qA5Ee8V-09-81">
          <mxGeometry y="26" width="220" height="74" as="geometry" />
        </mxCell>
        <mxCell id="BkFgq6x3I6qA5Ee8V-09-84" value="&lt;div&gt;+ Library(const std::string&amp;amp;)&lt;/div&gt;&lt;div&gt;+ ~Library() : void&lt;/div&gt;&lt;div&gt;+ addItem(LibraryItem*) : void&lt;/div&gt;&lt;div&gt;+ addMember(const Member&amp;amp;) : void&lt;/div&gt;&lt;div&gt;+ findItemById(int) : LibraryItem* const&lt;/div&gt;&lt;div&gt;+ findMemberById(int) : Member*&lt;/div&gt;&lt;div&gt;+ lendItem(int, int) : bool&lt;/div&gt;&lt;div&gt;+ returnItem(int, int) : bool&lt;/div&gt;&lt;div&gt;+ displayAllItems() : void const&lt;/div&gt;&lt;div&gt;+ displayAllMembers() : void const&lt;/div&gt;&lt;div&gt;+ getName() : std::string const&lt;/div&gt;" style="text;html=1;strokeColor=none;fillColor=none;align=left;verticalAlign=top;spacingLeft=4;spacingRight=4;whiteSpace=wrap;overflow=hidden;rotatable=0;points=[[0,0.5],[1,0.5]];portConstraint=eastwest;" vertex="1" parent="BkFgq6x3I6qA5Ee8V-09-81">
          <mxGeometry y="100" width="220" height="190" as="geometry" />
        </mxCell>
        <mxCell id="BkFgq6x3I6qA5Ee8V-09-85" style="text;html=1;strokeColor=none;fillColor=none;align=left;verticalAlign=top;spacingLeft=4;spacingRight=4;whiteSpace=wrap;overflow=hidden;rotatable=0;points=[[0,0.5],[1,0.5]];portConstraint=eastwest;" vertex="1" parent="BkFgq6x3I6qA5Ee8V-09-81">
          <mxGeometry y="290" width="220" height="26" as="geometry" />
        </mxCell>
        <mxCell id="BkFgq6x3I6qA5Ee8V-09-89" style="edgeStyle=orthogonalEdgeStyle;rounded=0;orthogonalLoop=1;jettySize=auto;html=1;entryX=0.534;entryY=0.981;entryDx=0;entryDy=0;entryPerimeter=0;shape=flexArrow;" edge="1" parent="1" source="BkFgq6x3I6qA5Ee8V-09-20" target="BkFgq6x3I6qA5Ee8V-09-74">
          <mxGeometry relative="1" as="geometry" />
        </mxCell>
        <mxCell id="BkFgq6x3I6qA5Ee8V-09-90" style="edgeStyle=orthogonalEdgeStyle;rounded=0;orthogonalLoop=1;jettySize=auto;html=1;shape=flexArrow;" edge="1" parent="1" source="BkFgq6x3I6qA5Ee8V-09-70">
          <mxGeometry relative="1" as="geometry">
            <mxPoint x="677" y="751" as="targetPoint" />
          </mxGeometry>
        </mxCell>
      </root>
    </mxGraphModel>
  </diagram>
</mxfile>
